<svg width="80" height="80" viewBox="0 0 80 80" fill="none" xmlns="http://www.w3.org/2000/svg">
<circle cx="40" cy="40" r="40" fill="#232127"/>
<g clip-path="url(#clip0_16_17)">
<path d="M58.8398 25.0167C58.7245 24.9465 58.5934 24.9062 58.4585 24.8993C58.3236 24.8925 58.1892 24.9194 58.0673 24.9776L51.714 27.9701C50.6134 28.4884 49.6694 29.2883 48.9775 30.2888C48.2856 31.2893 47.8704 32.4549 47.774 33.6676L47.6106 35.6976L44.319 41.1651V38.8309C44.319 38.8226 44.314 38.8167 44.314 38.8084C44.313 38.7281 44.3001 38.6483 44.2756 38.5717L42.744 33.9767L45.8715 27.7234C45.9388 27.5868 45.9667 27.4341 45.9522 27.2825C45.9376 27.1309 45.8811 26.9864 45.789 26.8651L40.8723 20.3092C40.7926 20.2125 40.6926 20.1347 40.5793 20.0812C40.4659 20.0277 40.3422 20 40.2169 20C40.0916 20 39.9679 20.0277 39.8545 20.0812C39.7412 20.1347 39.6411 20.2125 39.5615 20.3092L34.644 26.8667C34.5527 26.9885 34.4971 27.1333 34.4834 27.2849C34.4697 27.4365 34.4985 27.5889 34.5665 27.7251L37.694 33.9776L36.1623 38.5726C36.1376 38.6491 36.1244 38.7289 36.1231 38.8092V42.1017L31.0173 34.3526C31.0115 34.3442 31.0006 34.3384 30.9956 34.3309C30.9465 34.2626 30.8872 34.2022 30.8198 34.1517C30.8031 34.1409 30.7898 34.1267 30.7731 34.1167C30.7565 34.1059 30.7548 34.1001 30.744 34.0942L27.7398 32.3567L26.4923 30.4642L24.6898 27.7251C24.5892 27.5725 24.4405 27.458 24.2673 27.3997C24.0941 27.3414 23.9064 27.3427 23.734 27.4034L20.5448 28.5226C20.4277 28.5642 20.3216 28.6319 20.2345 28.7207C20.1475 28.8094 20.0817 28.9167 20.0423 29.0346C20.0029 29.1525 19.9908 29.2778 20.007 29.401C20.0231 29.5243 20.0671 29.6422 20.1356 29.7459L22.3898 33.1684L23.6331 35.0601L24.0431 38.5076C24.0453 38.5188 24.0481 38.53 24.0515 38.5409C24.0548 38.5576 24.059 38.5751 24.064 38.5917C24.0825 38.6784 24.1152 38.7615 24.1606 38.8376C24.1665 38.8459 24.1665 38.8567 24.1723 38.8651C24.1781 38.8734 36.359 57.3359 36.4181 57.3859C36.711 58.1549 37.2307 58.8168 37.9083 59.2836C38.5859 59.7505 39.3894 60.0004 40.2123 60.0001C40.5456 60.0001 40.879 59.9584 41.204 59.8792C41.7268 59.751 42.219 59.5204 42.6522 59.2007C43.0853 58.881 43.4507 58.4786 43.7273 58.0167L54.6273 39.9351L56.3481 38.8459C57.2518 38.2709 58.0105 37.4949 58.5648 36.5784C59.2689 35.4123 59.6112 34.0634 59.5481 32.7026L59.229 25.6859C59.2242 25.551 59.1862 25.4193 59.1183 25.3025C59.0504 25.1858 58.9548 25.0876 58.8398 25.0167ZM52.9048 39.6201L51.6365 41.7259L47.4248 39.1859L48.6948 37.0801L52.9048 39.6201ZM37.7623 52.0384V39.6501H42.679V43.8834L37.7623 52.0384ZM39.1731 34.7334H41.269L42.3606 38.0109H38.0806L39.1731 34.7334ZM40.2206 28.9959C40.0034 28.9959 39.795 28.9096 39.6414 28.756C39.4878 28.6024 39.4015 28.394 39.4015 28.1767C39.4015 27.9595 39.4878 27.7511 39.6414 27.5975C39.795 27.4439 40.0034 27.3576 40.2206 27.3576C40.4379 27.3576 40.6463 27.4439 40.7999 27.5975C40.9535 27.7511 41.0398 27.9595 41.0398 28.1767C41.0398 28.394 40.9535 28.6024 40.7999 28.756C40.6463 28.9096 40.4379 28.9959 40.2206 28.9959ZM40.2206 22.1676L44.179 27.4434L41.354 33.0934H41.0398V30.4851C41.5866 30.2918 42.0475 29.9115 42.341 29.4113C42.6344 28.9111 42.7416 28.3233 42.6436 27.7517C42.5456 27.1801 42.2486 26.6616 41.8052 26.2877C41.3618 25.9139 40.8006 25.7089 40.2206 25.7089C39.6407 25.7089 39.0794 25.9139 38.6361 26.2877C38.1927 26.6616 37.8957 27.1801 37.7977 27.7517C37.6997 28.3233 37.8069 28.9111 38.1003 29.4113C38.3938 29.9115 38.8547 30.2918 39.4015 30.4851V33.0934H39.0881L36.2631 27.4434L40.2215 22.1676H40.2206ZM28.7748 34.8484L28.5331 35.0067L25.5156 36.9959L25.2381 34.6734C25.2229 34.5471 25.1784 34.4262 25.1081 34.3201L24.2073 32.9517L25.5748 32.0501L26.4756 33.4184C26.5458 33.5246 26.6397 33.613 26.7498 33.6767L28.7748 34.8484ZM23.6731 29.1601L24.6731 30.6784L23.3048 31.5801L22.0756 29.7201L23.6731 29.1601ZM28.0473 37.2892L30.0956 35.9359L36.1231 45.0792V54.0176L25.994 38.6426L28.0473 37.2892ZM42.3265 57.1651C42.1597 57.4415 41.9401 57.6824 41.6802 57.874C41.4204 58.0655 41.1253 58.204 40.8119 58.2816C40.4985 58.3591 40.1729 58.3742 39.8537 58.3259C39.5345 58.2776 39.2279 58.1669 38.9515 58.0001C38.675 57.8333 38.4342 57.6137 38.2426 57.3538C38.051 57.094 37.9125 56.7989 37.835 56.4855C37.7575 56.1721 37.7424 55.8465 37.7907 55.5273C37.839 55.2081 37.9497 54.9015 38.1165 54.6251L44.304 44.3626H44.3181V44.3401L46.5781 40.5909L48.684 41.8626L50.7923 43.1292L42.3265 57.1651ZM57.1656 35.7284C56.743 36.4268 56.1646 37.0181 55.4756 37.4559L54.0198 38.3784L51.6431 36.9476L49.2665 35.5167L49.4015 33.7959C49.4751 32.8715 49.7917 31.9829 50.3191 31.22C50.8464 30.4572 51.566 29.8472 52.4048 29.4517L57.6498 26.9834L57.754 29.2667C57.6719 29.2581 57.589 29.262 57.5081 29.2784L55.5231 29.7701C54.6177 29.9912 53.7922 30.4616 53.1405 31.128C52.4887 31.7943 52.0367 32.6299 51.8356 33.5401C51.7881 33.7521 51.8268 33.9744 51.9432 34.1579C52.0595 34.3415 52.244 34.4713 52.4561 34.5188C52.6681 34.5664 52.8904 34.5277 53.0739 34.4113C53.2575 34.295 53.3873 34.1105 53.4348 33.8984C53.5706 33.2864 53.8749 32.7245 54.3133 32.2764C54.7517 31.8283 55.3067 31.5117 55.9156 31.3626L57.8298 30.8876L57.9156 32.7726C57.9636 33.8106 57.7026 34.8387 57.1656 35.7284Z" fill="#2BD0D0"/>
</g>
<defs>
<clipPath id="clip0_16_17">
<rect width="40" height="40" fill="white" transform="translate(20 20)"/>
</clipPath>
</defs>
</svg>
