<svg width="80" height="80" viewBox="0 0 80 80" fill="none" xmlns="http://www.w3.org/2000/svg">
<circle cx="40" cy="40" r="40" fill="#232127"/>
<g clip-path="url(#clip0_16_15)">
<path d="M39.9995 20C51.0269 20 60 28.9721 60 39.9995C60 51.0269 51.0279 60 39.9995 60C28.9721 60 20 51.0279 20 39.9995C20 28.9721 28.9721 20 39.9995 20ZM47.8168 55.6351C42.9461 53.2293 37.0539 53.2293 32.1832 55.6351C34.607 56.8593 37.2841 57.498 39.9995 57.5001C42.7152 57.4982 45.3927 56.8594 47.8168 55.6351ZM41.2505 22.563V26.2498H38.7495V22.564C35.286 22.8081 31.9749 24.0835 29.2426 26.2258L32.045 29.0272L30.2772 30.795L27.3846 27.9024C24.8575 30.5327 23.2189 33.8892 22.6993 37.4996H27.4998V40.0005H22.4999C22.4999 45.8147 25.3614 50.9608 29.7383 54.1448C35.9651 50.4249 44.0349 50.4249 50.2607 54.1448C54.6376 50.9608 57.5001 45.8147 57.5001 39.9995H52.5002V37.4996H57.3007C56.7812 33.8892 55.1425 30.5327 52.6154 27.9024L49.7228 30.795L47.955 29.0272L50.7574 26.2258C48.0252 24.0831 44.7141 22.8074 41.2505 22.563ZM38.8096 30.8681C39.1421 29.8325 40.8579 29.8325 41.1904 30.8681C41.8264 32.8492 45.0004 42.842 45.0004 45.0004C44.9991 46.3262 44.4717 47.5973 43.5341 48.5347C42.5965 49.4721 41.3253 49.9992 39.9995 50.0002C38.6739 49.9989 37.4029 49.4717 36.4655 48.5344C35.5281 47.597 35.001 46.326 34.9996 45.0004C34.9996 42.842 38.1746 32.8492 38.8096 30.8681ZM39.9995 35.4423C38.7646 39.4957 37.4996 43.9778 37.4996 45.0004C37.5006 45.6631 37.7643 46.2983 38.2329 46.7669C38.7015 47.2355 39.3368 47.4993 39.9995 47.5003C40.6624 47.4995 41.2979 47.2359 41.7667 46.7673C42.2355 46.2987 42.4994 45.6632 42.5004 45.0004C42.5004 43.9788 41.2354 39.4957 39.9995 35.4423Z" fill="#2BD0D0"/>
</g>
<defs>
<clipPath id="clip0_16_15">
<rect width="40" height="40" fill="white" transform="translate(20 20)"/>
</clipPath>
</defs>
</svg>
