<svg width="80" height="80" viewBox="0 0 80 80" fill="none" xmlns="http://www.w3.org/2000/svg">
<circle cx="40" cy="40" r="40" fill="#232127"/>
<g clip-path="url(#clip0_16_13)">
<path d="M56.406 31.719C57.054 31.719 57.578 32.243 57.578 32.891V57.656H58.828C58.9819 57.656 59.1343 57.6863 59.2765 57.7452C59.4187 57.8041 59.5479 57.8904 59.6567 57.9993C59.7656 58.1081 59.8519 58.2373 59.9108 58.3795C59.9697 58.5217 60 58.6741 60 58.828C60 58.9819 59.9697 59.1343 59.9108 59.2765C59.8519 59.4187 59.7656 59.5479 59.6567 59.6567C59.5479 59.7656 59.4187 59.8519 59.2765 59.9108C59.1343 59.9697 58.9819 60 58.828 60H21.172C21.0181 60 20.8657 59.9697 20.7235 59.9108C20.5813 59.8519 20.4521 59.7656 20.3433 59.6567C20.2344 59.5479 20.1481 59.4187 20.0892 59.2765C20.0303 59.1343 20 58.9819 20 58.828C20 58.6741 20.0303 58.5217 20.0892 58.3795C20.1481 58.2373 20.2344 58.1081 20.3433 57.9993C20.4521 57.8904 20.5813 57.8041 20.7235 57.7452C20.8657 57.6863 21.0181 57.656 21.172 57.656H22.422V44.61C22.422 43.963 22.946 43.438 23.594 43.438H28.28C28.928 43.438 29.452 43.963 29.452 44.61V57.657H31.796V49.297C31.796 48.651 32.32 48.126 32.968 48.126H37.655C38.303 48.126 38.827 48.651 38.827 49.298V57.658H41.171V39.921C41.171 39.274 41.695 38.749 42.343 38.749H47.03C47.678 38.749 48.202 39.274 48.202 39.921V57.655H50.546V32.891C50.546 32.243 51.07 31.719 51.718 31.719H56.406ZM55.234 34.063H52.891V57.656H55.234V34.063ZM45.859 41.093H43.516V57.656H45.859V41.093ZM36.484 50.469H34.141V57.656H36.484V50.469ZM27.11 45.78H24.766V57.655H27.109V45.781L27.11 45.78ZM54.062 20C54.9942 20.0011 55.8879 20.3718 56.547 21.031C57.2062 21.6901 57.5769 22.5838 57.578 23.516C57.5767 24.448 57.2058 25.3414 56.5467 26.0004C55.8875 26.6593 54.994 27.0299 54.062 27.031C53.342 27.031 52.673 26.814 52.115 26.441L48.042 29.496C48.206 30.0224 48.2441 30.5801 48.1531 31.1239C48.0621 31.6677 47.8446 32.1826 47.5181 32.627C47.1917 33.0714 46.7654 33.4328 46.2736 33.6823C45.7819 33.9317 45.2384 34.0621 44.687 34.063C44.1629 34.0633 43.6455 33.9457 43.173 33.719L38.484 38.407C38.704 38.866 38.828 39.38 38.828 39.922C38.8267 40.8538 38.4559 41.7471 37.797 42.406C37.1381 43.0649 36.2448 43.4357 35.313 43.437C34.815 43.4362 34.3229 43.3297 33.8691 43.1246C33.4153 42.9195 33.0102 42.6205 32.6805 42.2473C32.3509 41.874 32.1041 41.4351 31.9567 40.9594C31.8092 40.4838 31.7643 39.9823 31.825 39.488L28.375 37.764C27.7212 38.3968 26.8469 38.7504 25.937 38.75C25.005 38.7487 24.1116 38.3778 23.4526 37.7187C22.7937 37.0595 22.4231 36.166 22.422 35.234C22.4233 34.3022 22.7941 33.4089 23.453 32.75C24.1119 32.0911 25.0052 31.7203 25.937 31.719C26.435 31.7198 26.9271 31.8263 27.3809 32.0314C27.8347 32.2365 28.2398 32.5355 28.5695 32.9087C28.8991 33.282 29.1459 33.7209 29.2933 34.1966C29.4408 34.6722 29.4857 35.1737 29.425 35.668L32.875 37.393C33.3891 36.8949 34.0435 36.5662 34.7501 36.4512C35.4567 36.3363 36.1815 36.4405 36.827 36.75L41.516 32.062C41.2892 31.5892 41.1716 31.0714 41.172 30.547C41.1731 29.615 41.5437 28.7215 42.2026 28.0623C42.8616 27.4032 43.755 27.0323 44.687 27.031C45.407 27.031 46.077 27.249 46.635 27.621L50.708 24.567C50.544 24.0406 50.5059 23.4829 50.5969 22.9391C50.6879 22.3953 50.9054 21.8804 51.2319 21.436C51.5583 20.9916 51.9846 20.6302 52.4764 20.3807C52.9681 20.1313 53.5106 20.0009 54.062 20ZM35.312 38.75C34.666 38.75 34.141 39.276 34.141 39.922C34.141 40.568 34.666 41.094 35.312 41.094C35.959 41.094 36.484 40.568 36.484 39.922C36.484 39.276 35.959 38.75 35.312 38.75ZM25.938 34.062C25.291 34.062 24.766 34.588 24.766 35.234C24.766 35.88 25.291 36.406 25.937 36.406C26.584 36.406 27.109 35.88 27.109 35.234C27.109 34.588 26.584 34.062 25.938 34.062ZM44.688 29.375C44.041 29.375 43.516 29.901 43.516 30.547C43.516 31.193 44.041 31.719 44.688 31.719C45.334 31.719 45.859 31.193 45.859 30.547C45.859 29.901 45.335 29.375 44.688 29.375ZM54.063 22.344C53.416 22.344 52.891 22.87 52.891 23.516C52.891 24.162 53.416 24.687 54.063 24.687C54.709 24.687 55.234 24.162 55.234 23.516C55.234 22.87 54.71 22.344 54.063 22.344Z" fill="#2BD0D0"/>
</g>
<defs>
<clipPath id="clip0_16_13">
<rect width="40" height="40" fill="white" transform="translate(20 20)"/>
</clipPath>
</defs>
</svg>
